<?xml version="1.0" encoding="UTF-8"?>
<svg xmlns="http://www.w3.org/2000/svg" xmlns:xlink="http://www.w3.org/1999/xlink" width="21pt" height="21pt" viewBox="0 0 21 21" version="1.1">
  <g id="surface1">
    <path style=" stroke:none;fill-rule:nonzero;fill:rgb(0%,0%,0%);fill-opacity:1;" d="M 15.75 16.40625 L 15.75 15.09375 C 15.75 13.644531 14.574219 12.46875 13.125 12.46875 L 7.875 12.46875 C 6.425781 12.46875 5.25 13.644531 5.25 15.09375 L 5.25 16.40625 "/>
    <path style=" stroke:none;fill-rule:nonzero;fill:rgb(0%,0%,0%);fill-opacity:1;" d="M 13.125 7.21875 C 13.125 8.667969 11.949219 9.84375 10.5 9.84375 C 9.050781 9.84375 7.875 8.667969 7.875 7.21875 C 7.875 5.769531 9.050781 4.59375 10.5 4.59375 C 11.949219 4.59375 13.125 5.769531 13.125 7.21875 Z M 13.125 7.21875 "/>
    <path style="fill:none;stroke-width:1;stroke-linecap:butt;stroke-linejoin:miter;stroke:rgb(0%,0%,0%);stroke-opacity:1;stroke-miterlimit:4;" d="M 22.001488 12 C 22.001488 17.524554 17.524554 22.001488 12 22.001488 C 6.475446 22.001488 1.998512 17.524554 1.998512 12 C 1.998512 6.475446 6.475446 1.998512 12 1.998512 C 17.524554 1.998512 22.001488 6.475446 22.001488 12 Z M 22.001488 12 " transform="matrix(0.954545,0,0,0.954545,-0.954545,-0.954545)"/>
  </g>
</svg>
